PathFileType	4	(X/Y/Z)	G:\GRF\jawan data\CompiledGRF\03. Mohit Kumar\0231~ac~Walking 02_markers.trc
DataRate	CameraRate	NumFrames	NumMarkers	Units	OrigDataRate	OrigDataStartFrame	OrigNumFrames
100.000000	100.000000	7	18	mm	100.000000	556	891
Frame#	Time	c7			r should			l should			sacrum			r asis			r bar 1			r knee 1			r bar 2			r mall			r heel			r met			l asis			l bar 1			l knee 1			l bar 2			l mall			l heel			l met			
		X1	Y1	Z1	X2	Y2	Z2	X3	Y3	Z3	X4	Y4	Z4	X5	Y5	Z5	X6	Y6	Z6	X7	Y7	Z7	X8	Y8	Z8	X9	Y9	Z9	X10	Y10	Z10	X11	Y11	Z11	X12	Y12	Z12	X13	Y13	Z13	X14	Y14	Z14	X15	Y15	Z15	X16	Y16	Z16	X17	Y17	Z17	X18	Y18	Z18	

557	5.56	nan	nan	nan	-244.5473022460938	1466.722290039063	38.87154006958008	-236.0171051025391	1473.882202148438	377.8919067382813	-130.134033203125	1055.566284179688	223.3658599853516	-304.4671325683594	1027.370727539063	89.45542144775391	-322.9278564453125	619.7267456054688	-5.954168796539307	-356.7385559082031	541.28515625	34.2176399230957	-114.5171585083008	333.3526000976563	34.14873504638672	-46.59637069702148	216.4770812988281	93.09596252441406	8.767457008361816	218.6172943115234	155.8749084472656	-129.5873260498047	100.1305313110352	74.60989379882813	-319.6734619140625	1033.968627929688	339.4634094238281	-288.5093078613281	602.8843994140625	388.5367736816406	-300.3986511230469	519.025634765625	325.2225036621094	-252.2952270507813	241.5475921630859	368.0433044433594	-226.7516326904297	74.87010192871094	293.326416015625	-159.4537811279297	36.68441009521484	253.3298797607422	-365.6860656738281	39.96388626098633	247.2471008300781	
558	5.57	nan	nan	nan	-252.5129852294922	1466.7890625	39.26972961425781	-244.8397521972656	1474.324340820313	378.1985168457031	-137.7979278564453	1055.652099609375	222.7894744873047	-313.0625305175781	1028.160400390625	89.99744415283203	-337.7578430175781	621.61865234375	-6.044047832489014	-372.0789489746094	543.6401977539063	34.59314727783203	-135.1196136474609	328.9435729980469	34.71036148071289	-70.41312408447266	210.1520385742188	93.62771606445313	-15.79039764404297	209.4794158935547	156.8419494628906	-158.0092315673828	97.85594177246094	72.36629486083984	-326.7767639160156	1033.868530273438	340.1484680175781	-291.1524963378906	602.7111206054688	388.8237609863281	-302.7067565917969	518.6889038085938	325.5103759765625	-253.3236999511719	241.5541076660156	368.1217956542969	-226.8353118896484	74.96929168701172	293.3370361328125	-159.6631317138672	36.89303970336914	253.1566314697266	-365.6787414550781	39.84975051879883	247.3624114990234	
559	5.58	nan	nan	nan	-260.5700988769531	1466.797729492188	39.67916870117188	-253.4949188232422	1474.602172851563	378.455810546875	-145.3022003173828	1055.749633789063	222.1018829345703	-321.284423828125	1028.733642578125	90.48191833496094	-352.0376586914063	623.436279296875	-5.955789566040039	-387.1597290039063	546.0126342773438	34.94952011108398	-155.8749237060547	323.9668579101563	34.92300796508789	-94.87312316894531	203.3433837890625	93.80907440185547	-40.68739318847656	199.9371185302734	157.60302734375	-187.4640197753906	95.61260223388672	70.11557006835938	-333.5497436523438	1033.518798828125	340.7571411132813	-294.1631164550781	602.552490234375	389.0902404785156	-304.9544677734375	518.275634765625	325.7391052246094	-254.1925659179688	241.5459289550781	368.1401062011719	-226.9479064941406	75.08008575439453	293.3060302734375	nan	nan	nan	-365.6853637695313	39.78276062011719	247.4822540283203	
560	5.59	nan	nan	nan	-268.7219543457031	1466.658569335938	39.97697067260742	-262.3141784667969	1474.728881835938	378.7294921875	-152.6837615966797	1055.830322265625	221.3287506103516	-329.7023315429688	1029.23828125	90.916015625	-365.7694702148438	625.0874633789063	-5.777751922607422	-401.8189086914063	548.1484985351563	35.33880996704102	-177.2224884033203	318.4811401367188	34.96671676635742	-119.9627380371094	196.1992034912109	93.67144012451172	-65.94058227539063	190.0149841308594	158.1591186523438	-216.0671234130859	92.43798065185547	68.25794219970703	-340.3512573242188	1033.173706054688	341.3087463378906	-297.5916748046875	602.3871459960938	389.2602233886719	-307.337890625	517.8453979492188	325.9311218261719	-254.9253692626953	241.5575408935547	368.2042846679688	-227.1525573730469	75.2275390625	293.2696838378906	nan	nan	nan	-365.7725219726563	39.69754028320313	247.5543060302734	
561	5.600000000000001	nan	nan	nan	-276.953125	1466.466552734375	40.24813461303711	-271.082275390625	1474.707153320313	379.0047912597656	-160.2715301513672	1055.84716796875	220.5108795166016	-338.2677612304688	1029.633544921875	91.29446411132813	-378.8457336425781	626.5358276367188	-5.458682537078857	-415.9815368652344	549.9954223632813	35.94717407226563	-198.8949432373047	312.5559692382813	34.65468215942383	-145.5288848876953	188.7076263427734	93.3502197265625	-91.85239410400391	179.8740081787109	158.2907867431641	-245.2309417724609	89.18283843994141	66.65032958984375	-347.3486328125	1032.822265625	341.6878051757813	-301.2926330566406	602.2380981445313	389.2834777832031	-310.0172424316406	517.4848022460938	326.0640869140625	-255.6034393310547	241.5561981201172	368.2281188964844	-227.2259826660156	75.32267761230469	293.2578125	nan	nan	nan	-365.8036499023438	39.6298828125	247.5603179931641	
562	5.61	nan	nan	nan	-285.4007263183594	1466.17822265625	40.52926635742188	-279.62744140625	1474.482299804688	379.1553344726563	-167.7744445800781	1055.839721679688	219.7258148193359	-346.4892883300781	1029.817749023438	91.62480926513672	-391.3091430664063	627.696533203125	-5.095301151275635	-429.672119140625	551.6590576171875	36.59892272949219	-220.6148529052734	306.4490966796875	34.21595001220703	-171.4973297119141	180.9010620117188	92.86862182617188	-117.9525375366211	169.6173553466797	157.9292449951172	-275.1284790039063	86.04301452636719	65.3631591796875	-354.6157836914063	1032.463989257813	341.989501953125	-305.0372009277344	602.0209350585938	389.1718139648438	-312.5146484375	516.9140014648438	326.1572570800781	-256.316650390625	241.5652465820313	368.2069091796875	-227.31884765625	75.44312286376953	293.24365234375	nan	nan	nan	-366.0006408691406	39.66252136230469	247.5604400634766	
563	5.62	nan	nan	nan	-293.7242126464844	1465.725952148438	40.77824020385742	-288.3507080078125	1474.181518554688	379.2462158203125	-175.6561279296875	1055.735961914063	218.95849609375	-354.6166381835938	1029.84521484375	91.84616851806641	-403.2262268066406	628.6843872070313	-4.551140308380127	-442.7984313964844	553.1017456054688	37.34558486938477	-242.5606384277344	300.3587036132813	33.69744873046875	-197.7046966552734	172.9559936523438	92.16693878173828	-144.5263061523438	159.2238922119141	157.1608123779297	-305.1762390136719	82.85441589355469	64.25245666503906	-361.6270751953125	1031.988037109375	342.2919311523438	-308.8394775390625	601.7568969726563	389.1036376953125	-315.4133605957031	516.5126953125	326.2305297851563	-257.1222839355469	241.5516967773438	368.2459106445313	-227.4138336181641	75.5474853515625	293.1942443847656	nan	nan	nan	-366.0968627929688	39.63839721679688	247.5522308349609	
